<svg width="54" height="54" viewBox="0 0 54 54" fill="none" xmlns="http://www.w3.org/2000/svg">
<rect x="0.5" y="0.5" width="53" height="53" rx="5.5" stroke="#F0F0F0"/>
<path d="M26.8302 40.2599V35.651C26.8302 34.8999 27.4391 34.291 28.1902 34.291H38.9342C40.6054 34.291 41.9602 32.9548 41.9602 31.3066V16.3844C41.9602 14.7361 40.6054 13.3999 38.9342 13.3999H14.7262C13.055 13.3999 11.7002 14.7361 11.7002 16.3844V31.3066C11.7002 32.5362 12.1732 33.8864 13.3169 34.2735C14.2036 34.5736 15.0855 33.955 15.7693 33.3156L16.2996 32.8197C17.3061 31.8785 18.8991 31.9862 19.7698 33.0542L20.7782 34.291M26.8302 40.2599H20.7782M26.8302 40.2599H32.8822" stroke="#0060B4" stroke-width="2" stroke-linecap="round" stroke-linejoin="round"/>
<path d="M26.2445 21.815L23.9023 19.52M23.9023 19.52L21.5601 21.815M23.9023 19.52V28.7" stroke="#FFD600" stroke-width="1.5" stroke-linecap="round" stroke-linejoin="round"/>
<path d="M27.2642 26.405L29.6064 28.7M29.6064 28.7L31.9486 26.405M29.6064 28.7V19.52" stroke="#FFD600" stroke-width="1.5" stroke-linecap="round" stroke-linejoin="round"/>
</svg>
